<svg xmlns="http://www.w3.org/2000/svg" width="240" height="212" viewBox="0 0 240 212"><defs><style>.a{fill:#009e41;}.b{fill:#f29929;}.c{fill:#fadcc4;}.d{fill:#fff;}.e{fill:#694832;}.f{fill:#d32d64;}.g{fill:#f6c4d2;}</style></defs><g transform="translate(-150.949 -45.582)"><path class="a" d="M162.233,252.383V101.324q-7.407,4.61-10.028,4.609l-.683-.346a2.658,2.658,0,0,1-.342-1.383q0-.574,1.95-1.382,14-5.99,17.67-17.63a5.636,5.636,0,0,1,1.205-2.3,2.217,2.217,0,0,1,1.549-.577h8.261a1.971,1.971,0,0,1,1.491.807,5.581,5.581,0,0,1,1.033,3.226V252.383h7.369a1.929,1.929,0,0,1,1.324.461,1.48,1.48,0,0,1,.518,1.152,1.217,1.217,0,0,1-.46,1.037,1.882,1.882,0,0,1-1.381.577H152.217l-.806-.346A1.711,1.711,0,0,1,150.95,254q0-.691,1.267-1.613Z"/><path class="b" d="M202.415,200.3v-61.53q0-32.838,10.247-47.472,7.254-10.371,18.652-10.371,14.391,0,21.933,15.556t7.541,43.44V200.3q0,31.456-10.362,46.2-7.485,10.486-19.112,10.485A20.085,20.085,0,0,1,219.8,253.65a28.872,28.872,0,0,1-8.635-9.678q-2.3-3.8-4.606-12.329A114.545,114.545,0,0,1,202.415,200.3ZM237.877,91.761a9.4,9.4,0,0,0-2.534-6.337,5.5,5.5,0,0,0-4.49-1.959,5.242,5.242,0,0,0-4.26,1.959q-1.614,1.96-1.612,6.337V241.667q0,7.721,1.785,10.139a5.861,5.861,0,0,0,5.008,2.42,4.682,4.682,0,0,0,4.26-1.96q1.841-2.648,1.843-10.6Z"/><path class="a" d="M268.618,200.3v-61.53q0-32.838,10.247-47.472,7.254-10.371,18.653-10.371,14.39,0,21.932,15.556t7.542,43.44V200.3q0,31.456-10.363,46.2-7.484,10.486-19.111,10.485A20.087,20.087,0,0,1,286,253.65a28.885,28.885,0,0,1-8.635-9.678q-2.305-3.8-4.6-12.329A114.52,114.52,0,0,1,268.618,200.3Z"/><path class="a" d="M333.915,204.4h-2.356a1.105,1.105,0,0,1-.7-.2.615.615,0,0,1-.25-.5,1.083,1.083,0,0,1,.454-.751,24.028,24.028,0,0,0,6.172-6.484,39.873,39.873,0,0,0,3.389-7.534,18.666,18.666,0,0,0,1.114-4.305l.1-2.3a.467.467,0,0,1,.431-.25.658.658,0,0,1,.455.151.516.516,0,0,1,.167.4v20.522h7.426a.922.922,0,0,1,.622.192.564.564,0,0,1,.225.435.5.5,0,0,1-.2.434,1.033,1.033,0,0,1-.647.193h-7.426v46.759a5.251,5.251,0,0,0,.6,2.964,1.338,1.338,0,0,0,1.2.6,3.639,3.639,0,0,0,2.99-1.956q1.943-2.91,1.944-8.931v-7.326a1.807,1.807,0,0,1,.3-1.1.62.62,0,0,1,1,0,1.82,1.82,0,0,1,.3,1.1v5.57q0,8.48-2.682,11.992a8.125,8.125,0,0,1-6.694,3.511q-3.761,0-5.515-2.059-2.406-2.762-2.406-7.836Z"/><path class="a" d="M364.95,181.515v25.74a14.573,14.573,0,0,1,3.659-3.738,7.077,7.077,0,0,1,3.76-.979q3.358,0,4.763,1.759,2,2.36,2.006,7.382v44.045h1.844c.341.226.512.435.512.628s-.168.4-.5.627H368.962a.729.729,0,0,1,.01-1.255h1.191v-46.71a4.92,4.92,0,0,0-.457-2.511,1.363,1.363,0,0,0-1.118-.5,2.791,2.791,0,0,0-2.186,1.4,9.824,9.824,0,0,0-1.453,5.67v42.649H366.3c.333.226.5.435.5.628s-.168.4-.5.627H353.919l-.251-.145-.15-.482a.8.8,0,0,1,.4-.628h2.257V182.77h-2.257c-.335-.2-.5-.4-.5-.6q0-.35.5-.652Z"/><path class="c" d="M312.268,153.018c2.115-8.439,9.4-8.184,9.4-8.184,5.5,7.51-2.068,14.288-2.068,14.288l.156.249s3.825,11.181,2.534,20.117c-1.074,7.442-9.494,15.946-29.616,11.838,0,0-29.1-6.6-17-29.064l4.243-7.559,2.01-3.2.22-.375c-4.25-7.812,3.336-13.428,3.336-13.428,7.8,4.455,5.341,11.471,5.341,11.471S302.524,146.865,312.268,153.018Z"/><path class="d" d="M272.763,173.5s1.539-2.5,8.878-2.42a68.266,68.266,0,0,1,29.063,6.361s5.323,2.334,7.69,4.641c0,0,1.923,1.929,1.147,3.535,0,0-1.236,2.129-5.1,4.21-2.856,1.549-8.544,3.2-16.132,2.363a37.62,37.62,0,0,1-9.416-2.028c-4.524-1.706-9.136-4.258-11.307-6.765a19.667,19.667,0,0,1-4.025-5.8A17.942,17.942,0,0,1,272.763,173.5Z"/><path class="e" d="M293.605,177.55a12.758,12.758,0,0,1-.963-2.373c-.046-.151-.414-1.888.877-1.8.976.079,4.7,1.023,4.7,1.023s1.913.232.364,2.063a13.256,13.256,0,0,1-2.086,2.078S294.689,180.138,293.605,177.55Z"/><path class="e" d="M289.322,168.287a2.39,2.39,0,1,1-1.92-2.705A2.341,2.341,0,0,1,289.322,168.287Z"/><path class="e" d="M301.375,184.876a6.117,6.117,0,0,1-.648-.035,8.916,8.916,0,0,1-3.263-1.135l-.169-.09a6.039,6.039,0,0,1-2.968-3.023,6.67,6.67,0,0,1-4.959,1.251,6.231,6.231,0,0,1-4.031-2.9,1.2,1.2,0,1,1,1.995-1.336,3.942,3.942,0,0,0,2.476,1.872,4.948,4.948,0,0,0,4.261-1.918,6.99,6.99,0,0,1,.878-2.288,1.2,1.2,0,0,1,2.208.684,5.634,5.634,0,0,1-.786,2.465,2.874,2.874,0,0,0,.083.965,3.53,3.53,0,0,0,1.958,2.1l.182.1c1.632.868,3.4,1.565,5.448-.245a1.2,1.2,0,0,1,1.588,1.8A6.335,6.335,0,0,1,301.375,184.876Z"/><path class="e" d="M311.093,173.1a2.393,2.393,0,1,1-1.911-2.7A2.337,2.337,0,0,1,311.093,173.1Z"/><path class="f" d="M289.978,180.714a33.662,33.662,0,0,0,4.677-1.978s3.687,4.451,4.659,4.292a7.769,7.769,0,0,1-5.312.687S290.789,183.091,289.978,180.714Z"/><path class="e" d="M294.655,177.836a.9.9,0,0,1,.694.326c.008.01.8.965,1.727,1.952a9.758,9.758,0,0,0,2.245,2.014.9.9,0,0,1,.469,1.664,8.179,8.179,0,0,1-4.062,1,9.765,9.765,0,0,1-1.9-.19c-.148-.029-3.732-.755-4.7-3.593a.9.9,0,0,1,.564-1.144,32.964,32.964,0,0,0,4.517-1.906A.9.9,0,0,1,294.655,177.836Zm2.6,4.991c-.378-.336-.82-.769-1.346-1.322-.579-.609-1.112-1.213-1.474-1.633a33.729,33.729,0,0,1-3.169,1.338,5.739,5.739,0,0,0,2.9,1.622,7.973,7.973,0,0,0,1.555.156A7.3,7.3,0,0,0,297.259,182.826Z"/><path class="g" d="M282.906,175.616a2.772,2.772,0,1,1-2.215-3.188A2.738,2.738,0,0,1,282.906,175.616Z"/><path class="g" d="M314.606,183.179A2.776,2.776,0,1,1,312.388,180,2.745,2.745,0,0,1,314.606,183.179Z"/><path class="e" d="M315.081,154.864c-.147-2.26,2.984-3.18,2.984-3.18,1.768,1.891-.617,4.513-.617,4.513Z"/><path class="e" d="M287.415,149.034c.918-2.076-1.722-4.011-1.722-4.011-2.318,1.18-.956,4.455-.956,4.455Z"/><path class="e" d="M285.558,136.517a1.2,1.2,0,0,1,.6.158c4.444,2.537,5.815,5.893,6.182,8.26a10.843,10.843,0,0,1,.061,2.825,36.593,36.593,0,0,1,3.847-.2,32.314,32.314,0,0,1,15.395,3.662,12.465,12.465,0,0,1,1.964-3.579,10.5,10.5,0,0,1,3.322-2.752,10.655,10.655,0,0,1,4.756-1.245l.108,0a1.215,1.215,0,0,1,.927.491,10.564,10.564,0,0,1,1.146,11.17,15.92,15.92,0,0,1-2.766,4.1,63.212,63.212,0,0,1,1.659,6.442,41.13,41.13,0,0,1,.8,13.822,14.74,14.74,0,0,1-5.774,9.526A19.925,19.925,0,0,1,311.4,192.4a30.463,30.463,0,0,1-8.868,1.212,50.476,50.476,0,0,1-10.025-1.1l-.025-.005a40.163,40.163,0,0,1-7.951-2.92,31.1,31.1,0,0,1-6.462-4.145,18.884,18.884,0,0,1-5.087-6.51c-2.3-5.057-1.725-10.854,1.708-17.229l.01-.018,4.238-7.563q.015-.027.032-.054l1.881-2.981a10.549,10.549,0,0,1,.4-10.19,14.692,14.692,0,0,1,3.591-4.151A1.2,1.2,0,0,1,285.558,136.517Zm4.2,12.269a8.127,8.127,0,0,0,.189-3.584,8.871,8.871,0,0,0-4.272-6.009,12.578,12.578,0,0,0-2.377,2.97,8.187,8.187,0,0,0-.019,8.4,1.2,1.2,0,0,1-.018,1.182l-.22.375-.02.034-2,3.172-4.218,7.527a21.755,21.755,0,0,0-2.754,8.562,13.2,13.2,0,0,0,1.119,6.519A16.489,16.489,0,0,0,279.6,183.6a28.618,28.618,0,0,0,5.939,3.817A38.618,38.618,0,0,0,293,190.169a48.062,48.062,0,0,0,9.529,1.047,28.077,28.077,0,0,0,8.167-1.108,17.539,17.539,0,0,0,5.612-2.813,12.356,12.356,0,0,0,4.862-7.966,39.31,39.31,0,0,0-.766-12.965,60.429,60.429,0,0,0-1.68-6.468l-.077-.124a1.2,1.2,0,0,1,.219-1.528,13.423,13.423,0,0,0,2.837-4,8.106,8.106,0,0,0-.572-8.167,8.547,8.547,0,0,0-3.094.938,9.237,9.237,0,0,0-4.537,6.307,1.2,1.2,0,0,1-1.8.723,29.246,29.246,0,0,0-15.459-4.083,29.989,29.989,0,0,0-5.122.4,1.2,1.2,0,0,1-1.363-1.574Z"/><circle class="d" cx="6.728" cy="6.728" r="6.728" transform="matrix(0.707, -0.707, 0.707, 0.707, 276.112, 225.51)"/><path class="d" d="M279.943,217.56a3.371,3.371,0,1,1-4.52-.868A3.261,3.261,0,0,1,279.943,217.56Z"/><path class="d" d="M286.486,213.494a3.371,3.371,0,1,1-4.52-.869A3.262,3.262,0,0,1,286.486,213.494Z"/><path class="d" d="M294.208,218.259a3.371,3.371,0,1,1-1.341-4.406A3.257,3.257,0,0,1,294.208,218.259Z"/><path class="d" d="M298.064,226.083a3.372,3.372,0,1,1,.593-4.568A3.256,3.256,0,0,1,298.064,226.083Z"/><ellipse class="d" cx="6.73" cy="6.726" rx="6.73" ry="6.726" transform="matrix(0.231, -0.973, 0.973, 0.231, 301.704, 216.898)"/><path class="d" d="M304.119,203.952a3.371,3.371,0,1,1-4.52-.868A3.262,3.262,0,0,1,304.119,203.952Z"/><path class="d" d="M310.663,199.886a3.371,3.371,0,1,1-4.52-.868A3.262,3.262,0,0,1,310.663,199.886Z"/><path class="d" d="M318.385,204.651a3.371,3.371,0,1,1-1.341-4.406A3.256,3.256,0,0,1,318.385,204.651Z"/><path class="d" d="M322.241,212.476a3.372,3.372,0,1,1,.593-4.568A3.256,3.256,0,0,1,322.241,212.476Z"/><path class="b" d="M200.36,87.732a5.565,5.565,0,0,1,1.49-1.054,9.019,9.019,0,0,0,2.685-2.516,26.944,26.944,0,0,0,1.49-2.274,182.6,182.6,0,0,1,16.391-24.015q4.655-5.771,9.757-11.15a1,1,0,0,1,.611-.324c1.492-.235,2.981-.486,4.471-.735a1.413,1.413,0,0,0,.239-.083h.227q-3.24,6.073-6.012,12.374a166.224,166.224,0,0,0-7.253,19.87c-.039.132-.077.266-.112.4-.005.02.013.045.032.1l1.111-.3c.206-.057.412-.119.618-.175a.424.424,0,0,1,.449.1,1.654,1.654,0,0,1-.887.533c-1.016.3-2.034.58-3.047.885-3.161.95-6.284,2.013-9.376,3.168-.167.062-.334.187-.546.072a.7.7,0,0,1,.465-.551,7.009,7.009,0,0,1,.667-.264c.413-.153.823-.316,1.244-.448a.571.571,0,0,0,.412-.431q.674-2.184,1.377-4.36c.216-.671.45-1.335.692-2.05a1.821,1.821,0,0,0-.269.045q-3.794,1.339-7.586,2.681a.651.651,0,0,0-.362.306c-.843,1.434-1.7,2.86-2.537,4.3a4.506,4.506,0,0,0-.574,1.472c-.1.573.139.882.726.864a5.937,5.937,0,0,0,1-.163c.279-.057.553-.139.833-.211a.256.256,0,0,1-.064.363,2.628,2.628,0,0,1-.555.382q-3.635,1.636-7.277,3.255c-.178.08-.352.148-.533.009Zm24.55-31.78c-2.581,2.47-14.39,18.868-14.873,20.584.116-.038.223-.071.327-.108,2.315-.812,4.63-1.629,6.949-2.43a.734.734,0,0,0,.523-.512,171.64,171.64,0,0,1,6.91-17.164C224.8,56.2,224.856,56.076,224.91,55.953Z"/><path class="b" d="M390.723,143.581a2.057,2.057,0,0,1-.219-.346,1.9,1.9,0,0,0-.642-.824,6.4,6.4,0,0,0-2.556-1.169,81.525,81.525,0,0,0-8.19-1.389,75.186,75.186,0,0,0-11.546-.468A5.723,5.723,0,0,1,363,137.522a3.914,3.914,0,0,1-1.106-2.028,3.263,3.263,0,0,1-.006-1.123,1.85,1.85,0,0,1,2.458-1.385,2.853,2.853,0,0,1,1.8,2.642,1.253,1.253,0,0,1-1.775,1.221,3.14,3.14,0,0,1-1.074-.688,1.936,1.936,0,0,0-.361-.27.164.164,0,0,0-.257.16,1.152,1.152,0,0,0,.1.4,3.025,3.025,0,0,0,.879,1.12,4.773,4.773,0,0,0,2.576,1.086c.85.094,1.708.1,2.564.139.4.016.8,0,1.267,0l-1.038-2.658a91.122,91.122,0,0,1,17.665-5.621c-.064-.563-.5-1.009-.4-1.611a.664.664,0,0,1,.506.506c.456,1.281.931,2.557,1.368,3.845.376,1.109.71,2.233,1.06,3.351a1.374,1.374,0,0,1,.074.33c0,.064-.036.177-.077.189a.269.269,0,0,1-.233-.049,1.133,1.133,0,0,1-.191-.36c-.127-.381-.238-.767-.371-1.2a80.147,80.147,0,0,0-13.006,3.313c.094.016.187.039.282.046a78.606,78.606,0,0,1,11.063,1.572,4.627,4.627,0,0,0,1.835.121.871.871,0,0,0,.835-.98c0-.312-.038-.623-.058-.93.277-.081.355-.062.449.12a1.163,1.163,0,0,1,.083.25q.46,1.852.92,3.7c.038.156.076.312.115.467v.379Z"/><path class="b" d="M380.426,116.682c-.216-.389-.395-.706-.569-1.025a1.545,1.545,0,0,1-.141-.308.155.155,0,0,1,.217-.2.7.7,0,0,1,.241.173,1.117,1.117,0,0,1,.165.252q1.468,2.816,2.931,5.634c.045.086.076.181.132.314l-2.354.235v.075c.233.09.473.165.7.273a15.676,15.676,0,0,1,1.715.871,4.442,4.442,0,0,1,2.077,2.944,2.4,2.4,0,0,1-2.036,2.891,4.108,4.108,0,0,1-4.374-2.286,2.819,2.819,0,0,1-.265-.936,1.268,1.268,0,0,1,.862-1.327,2.993,2.993,0,0,1,1.928-.092,6.318,6.318,0,0,1,1.592.684c.273.157.548.31.83.45.131.065.287.15.422.018a.384.384,0,0,0,.057-.46,4.138,4.138,0,0,0-.407-.717,3.42,3.42,0,0,0-1.148-.91,9.5,9.5,0,0,0-3.826-1.078,13.043,13.043,0,0,0-3.045.244,88.867,88.867,0,0,0-10.428,2.326c-.531.154-1.06.314-1.606.476.2.576.668,1,.765,1.6a.27.27,0,0,1-.4-.061,2.51,2.51,0,0,1-.209-.314q-1.781-3.122-3.8-6.094a1.472,1.472,0,0,1-.173-.291.228.228,0,0,1,.028-.2.215.215,0,0,1,.2-.029,1.1,1.1,0,0,1,.3.272c.207.283.4.579.62.906A92.556,92.556,0,0,1,380.426,116.682Z"/><path class="b" d="M342.227,98.714a9.592,9.592,0,0,0-1.81-.392c-.348-.055-.694-.12-1.041-.185a.54.54,0,0,1-.212-.074c-.1-.07-.227-.146-.26-.247-.05-.156.128-.192.229-.25q3.586-2.071,7.326-3.846c.262-.125.523-.251.786-.37.37-.167.567-.1.849.307a4.533,4.533,0,0,1-.357.293c-.439.295-.893.568-1.324.874a10,10,0,0,0-2.239,2.128,6.2,6.2,0,0,0-.9,1.61,2.05,2.05,0,0,0,.768,2.57,3,3,0,0,0,3.782.025,6.2,6.2,0,0,0,1.681-1.924c.535-.97,1.024-1.965,1.516-2.958.542-1.095,1.05-2.207,1.6-3.3a6.527,6.527,0,0,1,1.321-1.786,4.681,4.681,0,0,1,3.849-1.3,9.54,9.54,0,0,1,5.823,2.771,5.339,5.339,0,0,1,1.673,3.144.4.4,0,0,0,.257.334c.451.224.9.448,1.351.678.279.144.561.288.827.454a2.749,2.749,0,0,1,.382.368,3.591,3.591,0,0,1-.371.148q-4.027,1.033-7.958,2.383a.64.64,0,0,1-.7-.107c-.2-.178-.192-.307.03-.447.149-.093.314-.161.468-.245.772-.425,1.556-.83,2.311-1.284a7.816,7.816,0,0,0,1.91-1.592,3.605,3.605,0,0,0,.379-.516,1.552,1.552,0,0,0-.013-1.719,3.743,3.743,0,0,0-2.455-1.687,2.126,2.126,0,0,0-1.749.409,5.2,5.2,0,0,0-1.125,1.165,13.982,13.982,0,0,0-1.464,2.6c-.313.7-.586,1.422-.918,2.114-.376.783-.781,1.553-1.206,2.31A7.044,7.044,0,0,1,354,102.734a5.658,5.658,0,0,1-4.952,1.616,9.7,9.7,0,0,1-5.128-2.318,8.913,8.913,0,0,1-.825-.83,3.383,3.383,0,0,1-.843-2.177C342.245,98.925,342.235,98.826,342.227,98.714Z"/><path class="b" d="M331.345,91.7c.544.39,1.054.754,1.56,1.124.028.021.021.091.032.149a.437.437,0,0,1-.47.021,3.277,3.277,0,0,1-.359-.208q-3.526-2.313-7.215-4.353c-.282-.156-.282-.158-.388-.381.217-.2.442-.115.655,0,.389.208.771.428,1.185.659A118.06,118.06,0,0,1,345.5,77.994a2.442,2.442,0,0,0-.206-.19c-.308-.22-.62-.433-.925-.655a3.562,3.562,0,0,1-.3-.273.266.266,0,0,1,.361-.165,1.511,1.511,0,0,1,.407.192q3.091,2.145,6.043,4.48a.99.99,0,0,0,.166.087l-.038.09-2.406,1,.015.089h.391a12.777,12.777,0,0,1,3.113.313,6.544,6.544,0,0,1,2.532,1.225,3.943,3.943,0,0,1,1,1.126,2.083,2.083,0,0,1-.842,3.033,4.925,4.925,0,0,1-3.291.539,6.032,6.032,0,0,1-2.45-.939,4.341,4.341,0,0,1-.9-.8,1.167,1.167,0,0,1,.245-1.81,3.507,3.507,0,0,1,1.56-.633,7.581,7.581,0,0,1,2.37.039c.411.06.822.122,1.235.17.159.019.354.044.443-.129s-.03-.341-.153-.47a2.891,2.891,0,0,0-1.117-.687,7.42,7.42,0,0,0-2.485-.419,12.814,12.814,0,0,0-5.86,1.229,116.077,116.077,0,0,0-12.693,7.012C331.6,91.525,331.49,91.6,331.345,91.7Z"/><path class="b" d="M338.308,72.974a5.289,5.289,0,0,0-1.087-1.15,11.088,11.088,0,0,0-3.69-1.946A16.375,16.375,0,0,0,323.6,70a14.513,14.513,0,0,0-3.465,1.578,48.721,48.721,0,0,0-5.781,4.19,12.9,12.9,0,0,0-2,2.107,5.09,5.09,0,0,0-.773,1.422,2.114,2.114,0,0,0,.032,1.479,4.1,4.1,0,0,0,.874,1.358,6.577,6.577,0,0,0,1.5,1.145,12.443,12.443,0,0,0,5.752,1.657A16.5,16.5,0,0,0,323.2,84.7a17.763,17.763,0,0,0,6.441-2.39,3.14,3.14,0,0,0,.458-.331c.19-.172.168-.312-.053-.452a.8.8,0,0,0-.828-.063c-.393.2-.784.4-1.165.623a16.165,16.165,0,0,1-8.668,2.236,7.473,7.473,0,0,1-3.173-.755,3.746,3.746,0,0,1-.581-.351.772.772,0,0,1-.19-1.235,2.755,2.755,0,0,1,.367-.431c.248-.232.5-.459.773-.666q3.1-2.366,6.342-4.52c.093-.062.19-.12.3-.188,3,1.451,5.919,3.032,8.779,4.715a1.581,1.581,0,0,0,.156-.066c1.139-.648,2.28-1.292,3.415-1.947a8.982,8.982,0,0,0,1.952-1.481,4.876,4.876,0,0,0,1.115-1.693A2.827,2.827,0,0,0,338.308,72.974Zm-2.668-.451a2.762,2.762,0,0,1-.415.261q-4.094,2.162-8.023,4.612c-.064.04-.131.073-.2.112l-3.27-1.669c.164-.109.275-.185.388-.259,2.515-1.634,5.1-3.149,7.7-4.634a3.643,3.643,0,0,1,3.838.365C336.153,71.708,336.147,72.128,335.64,72.523Z"/><path class="b" d="M317.544,62.452a.438.438,0,0,1-.506.108c-.311-.1-.618-.213-.926-.324-.2-.073-.4-.15-.594-.223-1.227.791-9.724,9.883-11.142,11.939.168-.084.272-.13.371-.185a135.122,135.122,0,0,1,13.3-6.589c.741-.318,1.488-.62,2.229-.937a3.807,3.807,0,0,0,.6-.312.866.866,0,0,0,.167-1.507c-.1-.11-.223-.2-.331-.31-.087-.085-.168-.177-.3-.322.154-.052.252-.119.342-.11a1.534,1.534,0,0,1,.47.124q2.208.986,4.409,1.987a3.1,3.1,0,0,1,.381.247.673.673,0,0,1-.651.1c-.323-.052-.64-.135-.962-.195a4.1,4.1,0,0,0-2.049.187c-.6.2-1.186.423-1.767.664A133.619,133.619,0,0,0,300.993,76.9c-.405.254-.826.485-1.234.735a1.335,1.335,0,0,1-1.055.156c-1.1-.275-2.2-.562-3.291-.847a1.01,1.01,0,0,1-.241-.106.211.211,0,0,1-.094-.319,7.52,7.52,0,0,1,.4-.644c.853-1.172,1.7-2.351,2.574-3.5a134.9,134.9,0,0,1,10.637-12.286c.1-.1.189-.2.3-.32-.425-.288-.98-.249-1.414-.64.144-.068.238-.148.331-.148a2.012,2.012,0,0,1,.594.072q4.377,1.386,8.646,3.075C317.3,62.185,317.491,62.222,317.544,62.452Z"/><path class="b" d="M297.184,56.446a18.115,18.115,0,0,1-1.848-.515.291.291,0,0,1,.308-.269,1.576,1.576,0,0,1,.487.018c2.825.637,5.632,1.349,8.413,2.161.024.007.047.019.085.035-.033.167-.19.22-.3.3q-3.393,2.568-6.631,5.329a135.73,135.73,0,0,0-11.172,10.686c-.092.1-.18.2-.291.328a15.469,15.469,0,0,1,1.875.441.33.33,0,0,1-.35.283,2.7,2.7,0,0,1-.489-.023c-1.58-.248-3.155-.522-4.739-.747-1.558-.221-3.124-.394-4.686-.586-.174-.021-.356-.018-.428-.251a.8.8,0,0,1,.69-.2,7.637,7.637,0,0,1,.975.11.6.6,0,0,0,.647-.242A131.407,131.407,0,0,1,291.1,61.7c1.874-1.685,3.813-3.3,5.721-4.945Z"/><path class="b" d="M309.3,53.952a11.558,11.558,0,0,1-4.165-.73,3.99,3.99,0,0,1-1.237-.712c-.77-.686-.707-1.342.179-1.873a4.528,4.528,0,0,1,1.9-.561,10.017,10.017,0,0,1,5.068.688,5.126,5.126,0,0,1,1.045.6,2.58,2.58,0,0,1,.617.7.714.714,0,0,1-.139.963,3.229,3.229,0,0,1-.748.5,4.45,4.45,0,0,1-1.532.373C309.918,53.93,309.54,53.938,309.3,53.952Z"/><path class="b" d="M265.454,73.059a.4.4,0,0,1,.375-.31,2.382,2.382,0,0,1,.637-.032.68.68,0,0,0,.688-.332q3.122-4.09,6.553-7.926,4.075-4.58,8.515-8.808a5.349,5.349,0,0,0,.5-.519c.263-.332.2-.539-.217-.664a3.546,3.546,0,0,0-1.5-.074,7.968,7.968,0,0,0-4.149,1.949c-.326.277-.637.575-.935.882a147.17,147.17,0,0,0-12.8,15.062c-.067.091-.135.182-.2.276-.012.018-.007.047-.011.086.359.138.8-.124,1.152.206a.925.925,0,0,1-.743.32c-.212.021-.429,0-.642.011q-3.741.128-7.48.261c-.466.017-.93.067-1.4.1-.221.016-.221.014-.427-.184a1,1,0,0,1,.693-.32c.439-.04.879-.071,1.32-.087a.6.6,0,0,0,.52-.3q3.72-5.434,7.918-10.507,3.842-4.655,8.036-9c.1-.1.188-.2.316-.337a2.18,2.18,0,0,0-.266-.055c-.453-.028-.906-.048-1.358-.079-.134-.009-.267-.043-.477-.078.107-.117.156-.22.231-.243a1.991,1.991,0,0,1,.656-.141c1.12.052,2.24.117,3.358.2,1.319.1,2.636.23,3.953.351.54.049,1.078.11,1.616.168a1.343,1.343,0,0,1,.2.049l-1.318,1.4c.208-.052.336-.079.461-.117a19.052,19.052,0,0,1,3.615-.771,14.287,14.287,0,0,1,3.916.139c.68.12,1.35.3,2.017.482a2.842,2.842,0,0,1,.716.332,1.165,1.165,0,0,1,.489,1.568,3.09,3.09,0,0,1-.469.726,8.551,8.551,0,0,1-.779.77,143.016,143.016,0,0,0-14.486,15.112c-.095.114-.187.231-.325.4.329.033.6.061.864.086a1.546,1.546,0,0,1,.769.158.374.374,0,0,1-.42.31c-.352,0-.7-.015-1.057-.035-1.6-.091-3.194-.2-4.792-.276-1.12-.053-2.242-.062-3.363-.091A.6.6,0,0,1,265.454,73.059Z"/><path class="b" d="M237.92,75.084c.419-.042.777-.079,1.137-.107.037,0,.079.051.154.1a1.222,1.222,0,0,1-.8.453c-.518.108-1.038.2-1.558.3-2.771.533-5.518,1.166-8.252,1.862-.189.049-.384.129-.571-.064a1.207,1.207,0,0,1,.741-.486,11.7,11.7,0,0,1,1.21-.3.885.885,0,0,0,.692-.546c1.358-2.6,2.806-5.159,4.317-7.678a165.552,165.552,0,0,1,9.966-14.749q.114-.151.221-.307c.012-.018.006-.047.014-.117l-2.059.22a.207.207,0,0,1,.1-.319,2.289,2.289,0,0,1,.662-.257c1.263-.15,2.528-.29,3.795-.4,1.795-.157,3.592-.286,5.388-.425.17-.013.341-.018.6-.031l-1.273,1.572.043.054c.122-.054.246-.1.367-.16a19.607,19.607,0,0,1,4.809-1.654,16.791,16.791,0,0,1,5.042-.183,4.262,4.262,0,0,1,1.021.257,1.1,1.1,0,0,1,.683,1.475,3.625,3.625,0,0,1-.472.9,12.943,12.943,0,0,1-.842,1.019,154.6,154.6,0,0,0-13.132,17.4c-.093.144-.183.291-.3.472.6-.03,1.132-.059,1.666-.082.028,0,.057.045.092.076a.444.444,0,0,1-.4.348,7.347,7.347,0,0,1-.781.126c-1.8.214-3.6.408-5.4.64-1.224.158-2.441.366-3.661.551-.158.024-.322.093-.463-.071a.562.562,0,0,1,.456-.4,3.34,3.34,0,0,1,.7-.137.59.59,0,0,0,.5-.335c.95-1.546,1.892-3.1,2.875-4.624a157.009,157.009,0,0,1,10.9-14.881,6.149,6.149,0,0,0,.539-.728c.179-.3.094-.472-.25-.543a3.067,3.067,0,0,0-1.311.079,8.311,8.311,0,0,0-3.634,1.93,12.7,12.7,0,0,0-1.756,1.924,160.32,160.32,0,0,0-10.241,15.156c-.451.758-.891,1.523-1.336,2.285C238.058,74.815,238,74.926,237.92,75.084Z"/><path class="b" d="M369.011,102.1c.21.227.369.406.534.577A5.92,5.92,0,0,1,370.552,104a2.459,2.459,0,0,1,.314,1.079,1.064,1.064,0,0,1-.792,1.146,2.424,2.424,0,0,1-1.487,0,4.515,4.515,0,0,1-1.381-.686,6.861,6.861,0,0,1-1.925-2.106,3.513,3.513,0,0,1-.366-.9,1.048,1.048,0,0,1,.6-1.289,3.184,3.184,0,0,1,1.838-.305,6.465,6.465,0,0,1,1.92.539,11.057,11.057,0,0,1,3.018,1.987,18.889,18.889,0,0,1,4.016,5.311,5.522,5.522,0,0,1,.6,1.7,3.2,3.2,0,0,1,.034.752,1.347,1.347,0,0,1-1.191,1.316c-.408.081-.818.15-1.226.226a93.748,93.748,0,0,0-14.643,3.959l-.035.013c-.579.211-.683.638-.211,1.038a3.545,3.545,0,0,0,.913.514,7.254,7.254,0,0,0,.871.245c.325.093.353.144.318.531a.6.6,0,0,1-.5.029,5.919,5.919,0,0,1-.855-.295,8.631,8.631,0,0,1-3.872-3.648c-.063-.109-.115-.223-.168-.338a1.807,1.807,0,0,1,.323-2.134c.042-.045.081-.095.148-.173-.107-.044-.19-.084-.277-.114-.642-.223-1.294-.421-1.926-.67a8.078,8.078,0,0,1-3.712-3.107,3.151,3.151,0,0,1-.4-.85,1.15,1.15,0,0,1,.719-1.565c1.14-.5,2.283-1,3.436-1.477,1.084-.444,2.182-.852,3.275-1.271a3,3,0,0,1,2.791.244,18.292,18.292,0,0,1,1.8,1.25c1.108.894,2.182,1.831,3.27,2.749.453.382.912.756,1.359,1.145a.51.51,0,0,0,.513.12c1.763-.423,3.529-.831,5.294-1.246a2.532,2.532,0,0,0,.362-.1.916.916,0,0,0,.629-.934,2.2,2.2,0,0,0-.38-1.172,7.537,7.537,0,0,0-3.439-3.021c-.265-.116-.541-.205-.814-.3C369.231,102.154,369.145,102.139,369.011,102.1Zm-8.114,5.853-2.831.981c-1.1.4-2.182.852-3.27,1.286-.209.084-.439.169-.466.443a.682.682,0,0,0,.379.65,2.146,2.146,0,0,0,.51.242,6.363,6.363,0,0,0,4.152-.014c1.506-.536,3.027-1.03,4.55-1.52.922-.3,1.858-.551,2.861-.845a18.094,18.094,0,0,0-1.742-1.37,2.857,2.857,0,0,0-2.73-.353"/></g></svg>